<?xml version="1.0" standalone="no"?>
<!DOCTYPE svg PUBLIC "-//W3C//DTD SVG 20010904//EN"
 "http://www.w3.org/TR/2001/REC-SVG-20010904/DTD/svg10.dtd">
<svg version="1.0" xmlns="http://www.w3.org/2000/svg"
 width="512.000000pt" height="512.000000pt" viewBox="0 0 512.000000 512.000000"
 preserveAspectRatio="xMidYMid meet">

<g transform="translate(0.000000,512.000000) scale(0.100000,-0.100000)"
fill="#000000" stroke="none">
<path d="M3025 4451 c-70 -31 -125 -113 -125 -185 0 -45 27 -104 66 -143 101
-100 266 -69 325 62 27 58 24 113 -9 176 -49 94 -162 133 -257 90z m128 -139
c22 -19 22 -70 0 -94 -21 -24 -68 -23 -93 2 -25 25 -26 72 -2 92 33 29 60 29
95 0z"/>
<path d="M2075 4375 c-34 -33 -31 -58 11 -105 l36 -40 -36 -40 c-41 -46 -44
-67 -15 -104 29 -37 65 -34 111 11 l37 36 41 -36 c45 -42 80 -47 110 -17 31
31 25 69 -17 112 l-37 38 37 38 c42 43 48 81 17 112 -30 30 -65 25 -110 -16
l-40 -36 -40 36 c-47 42 -72 45 -105 11z"/>
<path d="M1220 4280 c-43 -43 -11 -120 48 -120 36 0 72 37 72 73 0 36 -33 67
-70 67 -17 0 -39 -9 -50 -20z"/>
<path d="M3723 4128 c-87 -85 -107 -117 -94 -150 5 -13 48 -61 95 -107 77 -74
89 -82 113 -77 51 13 69 68 37 114 l-15 22 86 0 c86 0 88 -1 121 -34 26 -26
34 -42 34 -69 0 -50 -40 -95 -92 -104 -72 -11 -102 -69 -58 -113 57 -57 208 9
262 113 52 102 12 240 -87 302 -45 28 -57 30 -157 33 -59 2 -108 7 -108 12 0
4 7 13 15 20 23 19 19 76 -7 94 -42 30 -66 20 -145 -56z"/>
<path d="M991 3773 l-33 -29 -119 -849 c-206 -1478 -191 -1362 -177 -1392 29
-58 25 -57 678 -148 338 -47 627 -88 643 -91 l27 -6 0 -269 0 -269 -171 0
c-206 0 -229 -8 -229 -77 0 -66 -39 -63 815 -63 762 0 771 0 793 20 28 26 28
71 1 96 -19 17 -41 19 -205 22 l-184 3 0 208 c0 114 2 210 5 212 2 3 125 -12
272 -33 717 -100 922 -128 955 -128 44 0 94 38 102 78 3 15 74 514 156 1110
164 1178 159 1111 100 1153 -20 14 -207 44 -885 138 -473 66 -1202 168 -1620
226 -418 59 -790 109 -826 112 -62 5 -67 4 -98 -24z m1265 -273 c632 -89 1325
-185 1539 -215 523 -73 527 -73 530 -77 4 -5 -221 -1607 -227 -1613 -2 -3
-180 20 -394 50 -214 30 -940 131 -1614 225 -673 94 -1226 172 -1228 174 -1 2
47 361 108 797 60 437 110 800 110 807 0 6 6 12 14 12 7 0 530 -72 1162 -160z
m221 -1823 c876 -123 1595 -226 1599 -230 4 -4 2 -46 -5 -94 -31 -224 -33
-233 -50 -233 -30 -1 -3216 443 -3223 449 -6 5 27 287 37 319 3 6 15 12 27 12
13 -1 739 -101 1615 -223z m-2 -481 l220 -31 3 -222 2 -223 -275 0 -275 0 0
260 0 261 53 -7 c28 -4 151 -21 272 -38z"/>
<path d="M824 1241 c-22 -10 -56 -37 -76 -60 -95 -111 -68 -279 56 -356 45
-27 58 -30 158 -34 l109 -3 -20 -22 c-29 -31 -27 -70 6 -96 41 -32 68 -19 161
74 109 110 109 113 -6 228 -95 95 -123 107 -162 68 -26 -26 -25 -60 1 -94 l20
-26 -76 0 c-98 0 -141 17 -161 66 -9 21 -13 48 -9 62 10 39 59 82 94 82 60 0
95 75 53 113 -25 23 -96 21 -148 -2z"/>
</g>
</svg>
